<svg width="38" height="38" viewBox="0 0 38 38" fill="none" xmlns="http://www.w3.org/2000/svg">
<rect width="38" height="38" rx="6" fill="#292431"/>
<path d="M23.1401 9.96004L14.1101 12.96C8.04012 14.99 8.04012 18.3 14.1101 20.32L16.7901 21.21L17.6801 23.89C19.7001 29.96 23.0201 29.96 25.0401 23.89L28.0501 14.87C29.3901 10.82 27.1901 8.61004 23.1401 9.96004ZM23.4601 15.34L19.6601 19.16C19.5101 19.31 19.3201 19.38 19.1301 19.38C18.9401 19.38 18.7501 19.31 18.6001 19.16C18.3101 18.87 18.3101 18.39 18.6001 18.1L22.4001 14.28C22.6901 13.99 23.1701 13.99 23.4601 14.28C23.7501 14.57 23.7501 15.05 23.4601 15.34Z" fill="white"/>
</svg>
